<?xml version="1.0" standalone="no"?>
<!DOCTYPE svg PUBLIC "-//W3C//DTD SVG 20010904//EN"
 "http://www.w3.org/TR/2001/REC-SVG-20010904/DTD/svg10.dtd">
<svg version="1.0" xmlns="http://www.w3.org/2000/svg"
 width="512.000000pt" height="512.000000pt" viewBox="0 0 512.000000 512.000000"
 preserveAspectRatio="xMidYMid meet">

<g transform="translate(0.000000,512.000000) scale(0.100000,-0.100000)"
fill="#000000" stroke="none">
<path d="M2380 5114 c-19 -2 -78 -9 -130 -14 -330 -36 -695 -160 -990 -336
-375 -224 -680 -529 -904 -904 -175 -292 -291 -632 -338 -990 -16 -123 -16
-497 0 -620 82 -623 356 -1150 820 -1581 256 -239 575 -425 922 -539 274 -91
491 -124 800 -124 228 0 329 9 530 50 689 141 1304 583 1674 1204 175 292 291
632 338 990 16 123 16 497 0 620 -47 358 -163 698 -338 990 -224 375 -529 680
-904 904 -289 173 -634 291 -980 336 -88 12 -438 21 -500 14z m480 -520 c341
-50 664 -187 953 -406 105 -79 296 -270 375 -375 286 -378 426 -791 426 -1253
0 -260 -39 -481 -123 -704 -116 -303 -258 -524 -480 -747 -320 -319 -707 -515
-1156 -585 -149 -23 -441 -23 -590 0 -354 55 -668 189 -958 408 -105 79 -296
270 -375 375 -219 290 -353 604 -408 958 -23 149 -23 441 0 590 55 352 190
670 408 958 79 105 270 296 375 375 455 344 1001 487 1553 406z"/>
<path d="M2690 4214 c0 -110 -14 -151 -64 -187 -42 -30 -132 -31 -173 -1 -48
35 -63 78 -63 183 l0 94 -69 -7 c-163 -16 -346 -73 -536 -167 -173 -85 -297
-173 -439 -309 -286 -276 -466 -624 -520 -1007 l-13 -93 94 0 c107 0 147 -13
185 -58 38 -45 44 -100 19 -156 -31 -70 -65 -86 -188 -86 -56 0 -104 -3 -106
-7 -3 -5 1 -48 8 -98 80 -569 439 -1068 950 -1319 192 -95 375 -153 540 -171
33 -4 68 -9 77 -11 16 -5 18 5 18 111 0 123 8 151 52 192 70 64 188 40 234
-49 10 -19 14 -63 14 -143 0 -106 2 -116 18 -111 9 2 46 8 81 11 99 11 276 58
394 105 216 86 394 201 565 365 307 294 486 657 537 1088 l6 57 -119 0 c-107
0 -122 2 -153 23 -44 29 -74 100 -65 150 8 45 50 95 93 113 20 9 71 14 134 14
l102 0 -7 63 c-31 280 -180 623 -376 862 -283 345 -678 568 -1115 630 -55 8
-103 15 -107 15 -5 0 -8 -43 -8 -96z m-953 -634 c15 -6 207 -190 425 -408
l398 -397 207 207 c223 223 254 245 325 233 55 -10 113 -69 123 -123 12 -75
-10 -105 -306 -399 -235 -233 -279 -272 -311 -278 -92 -17 -74 -32 -577 468
-264 264 -469 476 -477 494 -55 127 63 251 193 203z"/>
</g>
</svg>
