<?xml version="1.0" standalone="no"?>
<!DOCTYPE svg PUBLIC "-//W3C//DTD SVG 20010904//EN"
 "http://www.w3.org/TR/2001/REC-SVG-20010904/DTD/svg10.dtd">
<svg version="1.0" xmlns="http://www.w3.org/2000/svg"
 style="width: 100%;height: 100%;" viewBox="0 0 128.000000 128.000000"
 preserveAspectRatio="xMidYMid meet">

<g transform="translate(0.000000,128.000000) scale(0.100000,-0.100000)"
fill="white" stroke="none">
<path d="M537 1240 c-169 -29 -322 -175 -360 -346 -12 -54 -16 -59 -43 -62
-96 -9 -125 -57 -132 -218 -4 -96 -2 -117 16 -158 27 -60 63 -76 170 -76 65 0
84 4 106 21 l26 20 0 185 c0 171 -1 185 -20 204 -11 11 -25 20 -31 20 -17 0
-3 73 23 123 48 96 128 163 227 191 152 44 342 -8 425 -117 54 -71 96 -197 66
-197 -5 0 -19 -9 -30 -20 -19 -19 -20 -33 -20 -204 l0 -185 26 -20 c15 -12 35
-21 45 -21 11 0 19 -7 19 -15 0 -27 -38 -116 -65 -151 -37 -49 -73 -64 -151
-64 -56 0 -71 4 -96 25 -24 21 -40 25 -89 25 -88 0 -128 -27 -128 -85 0 -58
40 -85 128 -85 49 0 65 4 89 25 24 20 41 25 83 25 144 0 232 73 280 231 18 61
24 69 45 69 53 0 94 27 116 76 18 41 20 62 16 158 -6 158 -37 209 -132 218
-27 3 -31 8 -43 62 -55 245 -295 391 -566 346z"/>
</g>
</svg>
