<?xml version="1.0" standalone="no"?>
<!DOCTYPE svg PUBLIC "-//W3C//DTD SVG 20010904//EN"
 "http://www.w3.org/TR/2001/REC-SVG-20010904/DTD/svg10.dtd">
<svg version="1.0" xmlns="http://www.w3.org/2000/svg"
 style="width: 100%;height: 100%;" viewBox="0 0 128.000000 128.000000"
 preserveAspectRatio="xMidYMid meet">

<g transform="translate(0.000000,128.000000) scale(0.100000,-0.100000)"
fill="white" stroke="none">
<path d="M90 1124 c-91 -31 -90 -26 -90 -484 0 -427 2 -441 57 -471 39 -21
1127 -21 1166 0 55 30 57 44 57 471 0 328 -2 397 -15 424 -30 63 -6 61 -610
63 -302 1 -557 -1 -565 -3z m802 -326 l-252 -253 -252 253 -253 252 505 0 505
0 -253 -252z m-635 -335 l-177 -178 0 355 0 355 177 -178 178 -177 -178 -177z
m943 175 l0 -353 -177 177 -178 178 175 175 c96 96 176 175 177 175 2 0 3
-159 3 -352z m-639 -123 c37 -36 72 -65 79 -65 7 0 43 30 81 67 l70 67 177
-177 177 -177 -505 0 -505 0 175 175 c96 96 177 175 179 175 2 0 35 -29 72
-65z"/>
</g>
</svg>
