<?xml version="1.0" standalone="no"?>
<!DOCTYPE svg PUBLIC "-//W3C//DTD SVG 20010904//EN"
 "http://www.w3.org/TR/2001/REC-SVG-20010904/DTD/svg10.dtd">
<svg version="1.0" xmlns="http://www.w3.org/2000/svg"
 width="512.000000pt" height="512.000000pt" viewBox="0 0 512.000000 512.000000"
 preserveAspectRatio="xMidYMid meet">

<g transform="translate(0.000000,512.000000) scale(0.100000,-0.100000)"
fill="#000000" stroke="none">
<path d="M181 5106 c-49 -18 -106 -70 -130 -119 -26 -54 -28 -153 -4 -204 9
-20 447 -503 974 -1075 651 -706 965 -1054 981 -1086 l23 -47 5 -1230 c5
-1212 5 -1231 25 -1265 23 -39 93 -80 138 -80 65 0 94 28 430 414 415 476 398
455 433 518 l29 53 5 795 5 795 27 51 c18 34 338 389 970 1074 519 563 954
1039 968 1059 36 52 41 162 10 226 -26 54 -86 108 -139 123 -57 18 -4702 16
-4750 -2z"/>
</g>
</svg>
