<?xml version="1.0" standalone="no"?>
<!DOCTYPE svg PUBLIC "-//W3C//DTD SVG 20010904//EN"
 "http://www.w3.org/TR/2001/REC-SVG-20010904/DTD/svg10.dtd">
<svg version="1.0" xmlns="http://www.w3.org/2000/svg"
 width="512.000000pt" height="512.000000pt" viewBox="0 0 512.000000 512.000000"
 preserveAspectRatio="xMidYMid meet">

<g transform="translate(0.000000,512.000000) scale(0.100000,-0.100000)"
fill="#000000" stroke="none">
<path d="M142 5109 c-46 -14 -118 -88 -131 -135 -16 -58 -15 -934 1 -988 16
-53 81 -118 134 -134 59 -17 929 -17 988 0 53 16 118 81 134 134 17 59 17 929
0 988 -16 53 -81 118 -134 134 -51 15 -940 16 -992 1z"/>
<path d="M2062 5109 c-46 -14 -118 -88 -131 -135 -16 -58 -15 -934 1 -988 16
-53 81 -118 134 -134 59 -17 929 -17 988 0 53 16 118 81 134 134 17 59 17 929
0 988 -16 53 -81 118 -134 134 -51 15 -940 16 -992 1z"/>
<path d="M3982 5109 c-46 -14 -118 -88 -131 -135 -16 -58 -15 -934 1 -988 16
-53 81 -118 134 -134 59 -17 929 -17 988 0 53 16 118 81 134 134 17 59 17 929
0 988 -16 53 -81 118 -134 134 -51 15 -940 16 -992 1z"/>
<path d="M142 3189 c-46 -14 -118 -88 -131 -135 -16 -58 -15 -934 1 -988 16
-53 81 -118 134 -134 59 -17 929 -17 988 0 53 16 118 81 134 134 17 59 17 929
0 988 -16 53 -81 118 -134 134 -51 15 -940 16 -992 1z"/>
<path d="M2062 3189 c-46 -14 -118 -88 -131 -135 -16 -58 -15 -934 1 -988 16
-53 81 -118 134 -134 59 -17 929 -17 988 0 53 16 118 81 134 134 17 59 17 929
0 988 -16 53 -81 118 -134 134 -51 15 -940 16 -992 1z"/>
<path d="M3982 3189 c-46 -14 -118 -88 -131 -135 -16 -58 -15 -934 1 -988 16
-53 81 -118 134 -134 59 -17 929 -17 988 0 53 16 118 81 134 134 17 59 17 929
0 988 -16 53 -81 118 -134 134 -51 15 -940 16 -992 1z"/>
<path d="M142 1269 c-46 -14 -118 -88 -131 -135 -16 -58 -15 -934 1 -988 16
-53 81 -118 134 -134 59 -17 929 -17 988 0 53 16 118 81 134 134 17 59 17 929
0 988 -16 53 -81 118 -134 134 -51 15 -940 16 -992 1z"/>
<path d="M2062 1269 c-46 -14 -118 -88 -131 -135 -16 -58 -15 -934 1 -988 16
-53 81 -118 134 -134 59 -17 929 -17 988 0 53 16 118 81 134 134 17 59 17 929
0 988 -16 53 -81 118 -134 134 -51 15 -940 16 -992 1z"/>
<path d="M3982 1269 c-46 -14 -118 -88 -131 -135 -16 -58 -15 -934 1 -988 16
-53 81 -118 134 -134 59 -17 929 -17 988 0 53 16 118 81 134 134 17 59 17 929
0 988 -16 53 -81 118 -134 134 -51 15 -940 16 -992 1z"/>
</g>
</svg>
