<svg width="512" height="512" xmlns="http://www.w3.org/2000/svg" preserveAspectRatio="xMidYMid meet" version="1.0">

 <g>
  <title>Layer 1</title>
  <g id="svg_1" fill="#000000" transform="translate(0 512) scale(0.1 -0.1)">
   <path fill="#999999" id="svg_2" d="m1069,4830c-387,-81 -700,-396 -780,-784c-18,-87 -19,-159 -19,-1486c0,-1327 1,-1399 19,-1486c78,-377 360,-671 746,-777l80,-22l1445,0l1445,0l85,23c334,91 597,336 707,657c52,154 53,167 53,1152c0,889 -1,915 -20,952c-58,115 -215,113 -279,-4c-14,-27 -17,-102 -21,-685l-5,-654l-441,505c-242,277 -465,526 -494,552c-59,53 -166,108 -250,128c-70,17 -209,17 -280,0c-80,-19 -194,-77 -251,-129c-28,-25 -187,-202 -355,-393c-168,-192 -307,-349 -308,-349c-2,0 -49,56 -105,125c-128,155 -199,221 -282,262c-98,49 -186,66 -299,60c-119,-7 -198,-34 -296,-99c-66,-44 -104,-85 -322,-348l-247,-298l-3,1096c-3,1231 -7,1162 71,1322c33,69 58,102 132,175c73,74 106,98 175,132c157,76 108,73 1121,73c563,0 917,4 938,10c47,13 99,66 112,112c18,68 -19,151 -81,183c-25,13 -157,15 -967,14c-866,0 -945,-2 -1024,-19zm2246,-2258c55,-28 74,-49 650,-707c280,-319 519,-592 533,-607l24,-26l-16,-84c-11,-53 -33,-117 -63,-177c-37,-78 -60,-109 -127,-175c-90,-90 -158,-134 -268,-174l-73,-27l-1415,0c-1531,0 -1430,-3 -1554,50c-119,51 -247,164 -319,281c-39,64 -81,182 -91,254l-6,45l246,300c496,604 470,574 532,603c80,36 159,36 237,-2c51,-26 75,-50 236,-245c102,-123 195,-226 217,-239c47,-29 116,-26 164,8c18,13 200,214 403,448c204,233 384,435 401,448c17,13 48,31 70,39c55,21 167,14 219,-13z"/>
   <path fill="#999999" id="svg_3" d="m3969,4827c-19,-12 -44,-42 -56,-67c-22,-42 -23,-55 -23,-297l0,-253l-264,0c-256,0 -264,-1 -297,-23c-49,-32 -83,-105 -74,-158c9,-53 64,-115 113,-129c21,-5 146,-10 280,-10l242,0l0,-242c0,-134 5,-259 10,-280c14,-49 76,-104 129,-113c53,-9 126,25 158,74c22,33 23,41 23,297l0,264l253,0c242,0 255,1 297,23c25,12 55,37 67,56c43,65 23,168 -41,214c-30,21 -42,22 -301,27l-270,5l-5,270c-5,259 -6,271 -27,301c-46,64 -149,84 -214,41z"/>
   <path fill="#999999" id="svg_4" d="m1352,4196c-207,-51 -389,-237 -431,-444c-40,-193 15,-384 150,-527c107,-112 229,-170 385,-182c346,-26 647,275 621,621c-4,45 -13,103 -21,129c-61,195 -225,352 -421,402c-71,18 -209,18 -283,1zm254,-330c86,-40 154,-143 154,-233c0,-139 -105,-256 -243,-270c-199,-20 -348,191 -263,372c26,57 99,127 148,142c61,20 148,15 204,-11z"/>
  </g>
 </g>
</svg>