<?xml version="1.0" standalone="no"?>
<!DOCTYPE svg PUBLIC "-//W3C//DTD SVG 20010904//EN"
 "http://www.w3.org/TR/2001/REC-SVG-20010904/DTD/svg10.dtd">
<svg version="1.0" xmlns="http://www.w3.org/2000/svg"
 width="512.000000pt" height="512.000000pt" viewBox="0 0 512.000000 512.000000"
 preserveAspectRatio="xMidYMid meet">

<g transform="translate(0.000000,512.000000) scale(0.100000,-0.100000)"
fill="#000000" stroke="none">
<path d="M3445 5109 c-333 -49 -634 -237 -824 -517 -47 -70 -112 -200 -135
-269 l-18 -53 -972 0 c-1084 0 -1043 2 -1112 -67 -20 -20 -43 -52 -52 -72 -20
-48 -20 -138 1 -177 9 -17 303 -422 653 -900 351 -478 651 -891 668 -918 l31
-49 5 -956 5 -956 22 -41 c61 -115 199 -165 304 -111 52 26 596 432 655 489
23 22 55 65 70 96 l29 57 5 705 c5 667 6 707 24 740 10 19 122 177 249 350
127 173 231 316 232 317 0 1 43 -7 95 -17 121 -26 330 -28 446 -5 727 140
1157 884 908 1575 -170 474 -631 795 -1134 789 -52 -1 -122 -5 -155 -10z m390
-318 c482 -127 764 -611 640 -1096 -21 -79 -85 -214 -140 -291 -54 -75 -173
-187 -249 -232 -164 -100 -311 -137 -515 -130 -123 4 -146 8 -239 40 -370 128
-612 460 -612 841 0 106 12 183 42 277 99 309 366 544 686 605 105 20 283 13
387 -14z m-1412 -938 c11 -205 76 -401 191 -578 68 -105 218 -258 318 -325 37
-25 68 -47 68 -50 0 -3 -99 -141 -220 -305 -120 -165 -231 -324 -245 -353 -53
-108 -55 -133 -55 -848 l0 -660 -242 -183 -243 -183 -5 884 c-5 959 -2 893
-60 1008 -12 24 -293 414 -625 866 -332 453 -606 828 -610 834 -4 7 262 10
858 10 l864 0 6 -117z"/>
<path d="M3260 4342 c-67 -34 -97 -115 -70 -188 6 -15 56 -73 110 -129 l100
-101 -96 -94 c-52 -52 -102 -107 -110 -122 -41 -79 11 -188 101 -208 66 -15
102 4 213 113 l102 101 98 -96 c110 -109 127 -120 187 -120 84 -2 147 61 147
146 0 60 -11 76 -120 189 l-96 97 101 103 c72 72 104 113 111 139 32 117 -81
220 -195 177 -15 -5 -73 -55 -128 -110 l-100 -99 -90 91 c-127 128 -184 152
-265 111z"/>
</g>
</svg>
