<?xml version="1.0" standalone="no"?>
<!DOCTYPE svg PUBLIC "-//W3C//DTD SVG 20010904//EN"
 "http://www.w3.org/TR/2001/REC-SVG-20010904/DTD/svg10.dtd">
<svg version="1.0" xmlns="http://www.w3.org/2000/svg"
 width="512.000000pt" height="512.000000pt" viewBox="0 0 512.000000 512.000000"
 preserveAspectRatio="xMidYMid meet">

<g transform="translate(0.000000,512.000000) scale(0.100000,-0.100000)"
fill="#000000" stroke="none">
<path d="M1965 5113 c-582 -51 -1094 -317 -1471 -766 -644 -766 -657 -1908
-29 -2692 407 -509 1022 -805 1672 -805 376 0 773 108 1086 297 l59 36 556
-555 c516 -514 562 -557 620 -582 184 -81 385 -45 523 93 139 139 174 337 93
523 -26 58 -70 105 -582 619 l-554 557 40 68 c132 228 215 454 264 722 29 157
31 532 5 687 -82 470 -288 868 -618 1192 -175 172 -331 283 -554 393 -336 167
-744 245 -1110 213z m470 -217 c609 -95 1138 -478 1421 -1028 155 -303 221
-596 211 -938 -10 -364 -93 -640 -292 -974 -67 -113 -73 -132 -54 -169 6 -12
269 -281 584 -597 390 -392 578 -588 590 -615 97 -211 -107 -433 -331 -359
-44 15 -104 72 -629 594 -319 318 -590 583 -602 589 -37 19 -56 13 -169 -55
-358 -214 -698 -305 -1089 -291 -351 13 -650 100 -939 275 -134 81 -239 164
-367 291 -303 301 -487 671 -550 1106 -16 112 -17 413 0 520 89 588 410 1080
904 1387 258 161 503 241 867 282 66 8 355 -4 445 -18z"/>
<path d="M2040 4539 c-78 -31 -92 -118 -26 -171 49 -40 136 -8 152 56 17 70
-60 141 -126 115z"/>
<path d="M2413 4491 c-34 -22 -49 -63 -38 -111 8 -37 34 -56 105 -76 251 -70
464 -197 640 -380 460 -479 504 -1219 104 -1759 -62 -84 -196 -217 -279 -278
-538 -391 -1275 -343 -1749 113 -452 435 -553 1117 -245 1655 158 277 389 476
693 599 89 36 103 45 118 76 34 69 -10 140 -85 140 -71 0 -301 -109 -445 -210
-160 -112 -346 -318 -449 -495 -219 -378 -267 -839 -132 -1263 278 -869 1260
-1315 2100 -953 691 298 1070 1038 908 1775 -117 534 -511 969 -1038 1145
-128 43 -168 47 -208 22z"/>
<path d="M1583 3612 c-28 -4 -70 -46 -75 -75 -9 -55 5 -73 245 -315 l241 -242
-242 -243 c-139 -140 -242 -251 -243 -262 -4 -61 18 -99 66 -115 28 -9 41 -8
67 4 18 9 136 119 263 246 l229 230 241 -239 c256 -254 268 -263 333 -235 38
16 63 64 55 109 -4 22 -66 91 -244 270 l-239 241 230 229 c127 127 237 245
246 263 12 26 13 39 4 67 -16 48 -54 70 -115 66 -11 -1 -122 -104 -262 -243
l-243 -242 -242 240 c-240 239 -260 254 -315 246z"/>
</g>
</svg>
