<?xml version="1.0" standalone="no"?>
<!DOCTYPE svg PUBLIC "-//W3C//DTD SVG 20010904//EN"
 "http://www.w3.org/TR/2001/REC-SVG-20010904/DTD/svg10.dtd">
<svg version="1.0" xmlns="http://www.w3.org/2000/svg"
 width="512.000000pt" height="512.000000pt" viewBox="0 0 512.000000 512.000000"
 preserveAspectRatio="xMidYMid meet">

<g transform="translate(0.000000,512.000000) scale(0.100000,-0.100000)"
fill="#000000" stroke="none">
<path d="M1730 5097 c-166 -56 -303 -199 -346 -362 -8 -27 -14 -61 -14 -75 0
-20 -12 -31 -60 -58 -87 -48 -171 -121 -241 -212 l-62 -80 -462 0 c-476 0
-515 -3 -535 -40 -7 -12 -10 -768 -10 -2120 l0 -2101 25 -24 24 -25 1856 0
1856 0 24 25 c23 23 25 31 25 130 0 104 -1 107 -29 136 -32 32 -47 35 -85 18
-29 -13 -46 -55 -46 -110 l0 -39 -1745 0 -1745 0 0 1995 0 1995 389 0 388 0
-13 -57 c-8 -32 -14 -106 -14 -165 0 -95 2 -110 20 -128 20 -20 33 -20 979
-20 l960 0 20 26 c17 22 21 41 21 109 0 72 -11 167 -26 218 -5 16 18 17 385
17 l391 0 0 -279 c0 -266 1 -279 21 -305 25 -32 75 -35 110 -7 l24 19 0 341 0
340 -23 23 -23 23 -482 3 -482 3 -28 43 c-54 86 -148 172 -262 240 -58 36 -60
37 -72 99 -39 192 -190 355 -382 411 -84 25 -249 21 -331 -7z m345 -172 c123
-59 200 -172 212 -310 3 -33 10 -68 15 -78 5 -9 41 -33 81 -52 203 -97 343
-295 358 -506 l4 -44 -840 0 -840 0 3 50 c10 179 143 382 310 475 131 73 126
68 134 145 13 127 59 215 148 280 81 59 139 76 255 73 87 -3 108 -7 160 -33z"/>
<path d="M1823 4806 c-104 -34 -169 -93 -204 -187 -47 -124 -1 -275 106 -349
152 -104 353 -58 440 101 22 42 30 70 33 130 4 67 1 83 -23 138 -31 69 -85
123 -150 152 -58 26 -149 32 -202 15z m141 -160 c70 -29 104 -128 69 -196 -55
-107 -206 -107 -260 0 -13 24 -23 54 -23 65 0 11 10 41 23 65 36 71 114 98
191 66z"/>
<path d="M3445 3328 c-967 -517 -1253 -673 -1272 -694 l-23 -25 0 -643 c0
-599 1 -645 18 -664 30 -37 1435 -915 1462 -915 31 0 1437 747 1468 780 l22
24 0 699 0 699 -22 25 c-13 13 -180 110 -373 214 -192 104 -516 280 -720 391
-203 110 -374 201 -380 201 -5 -1 -86 -42 -180 -92z m798 -409 c337 -183 618
-337 625 -344 10 -9 -22 -30 -147 -98 l-159 -88 -458 252 c-253 139 -535 294
-627 345 -116 63 -164 95 -155 100 15 10 301 163 306 163 2 1 279 -148 615
-330z m-683 -166 c190 -104 474 -261 633 -347 l287 -158 0 -188 0 -189 -92
-50 -93 -50 -5 189 c-4 150 -8 192 -20 204 -8 8 -307 173 -665 366 -357 194
-651 353 -652 354 -2 2 39 25 90 53 l92 51 40 -23 c22 -13 195 -108 385 -212z
m-142 -298 c342 -187 622 -342 622 -345 0 -3 -92 -56 -205 -119 l-205 -113
-607 342 c-335 189 -614 349 -621 355 -11 10 24 33 185 119 109 58 201 105
204 103 3 -1 285 -155 627 -342z m-488 -354 l615 -348 3 -571 c1 -315 -1 -572
-4 -572 -3 0 -284 176 -625 392 l-619 392 0 528 c0 290 3 528 8 528 4 0 284
-157 622 -349z m2030 -264 l0 -583 -512 -269 c-282 -148 -564 -295 -625 -328
l-113 -59 0 574 0 574 205 112 c112 62 207 112 210 112 3 0 5 -71 5 -157 0
-214 13 -253 84 -253 29 0 381 190 402 217 10 14 13 70 14 245 l0 226 158 86
c86 47 160 85 165 86 4 0 7 -262 7 -583z"/>
<path d="M486 3369 l-26 -20 0 -319 c0 -316 0 -319 22 -340 21 -19 34 -20 319
-20 l298 0 20 26 c20 26 21 38 21 336 l0 309 -25 24 -24 25 -289 0 c-278 0
-290 -1 -316 -21z m502 -331 l-3 -203 -187 -3 -188 -2 0 205 0 205 190 0 190
0 -2 -202z"/>
<path d="M1305 3085 c-31 -30 -33 -77 -5 -105 20 -20 33 -20 610 -20 577 0
590 0 610 20 12 12 20 33 20 55 0 22 -8 43 -20 55 -20 20 -33 20 -605 20
l-586 0 -24 -25z"/>
<path d="M482 2327 c-22 -23 -22 -29 -22 -338 l0 -316 23 -21 c23 -22 29 -22
316 -22 l292 0 24 25 25 24 0 311 0 311 -25 24 -24 25 -294 0 -294 0 -21 -23z
m503 -337 l0 -205 -185 0 -185 0 -3 195 c-1 107 0 200 3 207 3 11 44 13 187
11 l183 -3 0 -205z"/>
<path d="M1291 2034 c-28 -35 -26 -69 4 -99 l24 -25 354 0 354 0 21 23 c29 31
29 77 -1 105 -23 22 -28 22 -379 22 l-357 0 -20 -26z"/>
<path d="M480 1280 c-19 -19 -20 -33 -20 -339 l0 -320 26 -20 c26 -20 38 -21
316 -21 l289 0 24 25 25 24 0 309 c0 298 -1 310 -21 336 l-20 26 -300 0 c-286
0 -300 -1 -319 -20z m508 -337 l2 -203 -190 0 -190 0 0 205 0 205 188 -2 187
-3 3 -202z"/>
<path d="M1252 997 c-28 -30 -29 -80 -2 -107 20 -20 33 -20 559 -20 498 0 540
1 560 18 32 26 37 72 11 105 l-21 27 -543 0 -543 0 -21 -23z"/>
</g>
</svg>
