<?xml version="1.0" standalone="no"?>
<!DOCTYPE svg PUBLIC "-//W3C//DTD SVG 20010904//EN"
 "http://www.w3.org/TR/2001/REC-SVG-20010904/DTD/svg10.dtd">
<svg version="1.0" xmlns="http://www.w3.org/2000/svg"
 width="512.000000pt" height="512.000000pt" viewBox="0 0 512.000000 512.000000"
 preserveAspectRatio="xMidYMid meet">

<g transform="translate(0.000000,512.000000) scale(0.100000,-0.100000)"
fill="#000000" stroke="none">
<path d="M2483 5101 c-45 -21 -87 -76 -98 -128 -14 -68 35 -162 100 -188 16
-7 86 -16 155 -20 335 -18 601 -86 885 -224 448 -219 797 -568 1016 -1016 138
-284 206 -550 224 -885 8 -140 18 -174 64 -213 91 -76 226 -46 273 61 19 42
20 59 14 182 -12 258 -68 539 -152 769 -44 120 -167 372 -230 471 -196 309
-467 586 -769 788 -132 88 -390 218 -540 271 -244 86 -509 138 -759 147 -126
5 -145 3 -183 -15z"/>
<path d="M606 4860 c-292 -138 -540 -260 -553 -272 -12 -11 -30 -41 -39 -65
-15 -39 -16 -55 -5 -146 57 -468 204 -963 420 -1412 371 -770 969 -1484 1696
-2026 669 -498 1414 -812 2187 -920 176 -25 214 -21 268 29 21 19 104 185 281
562 251 534 251 534 247 592 -3 45 -10 65 -34 93 -24 29 -455 313 -982 647
-66 43 -117 55 -179 43 -33 -6 -70 -39 -268 -235 -126 -126 -243 -234 -260
-240 -66 -25 -201 -5 -397 60 -315 105 -591 281 -859 549 -155 155 -218 230
-318 379 -154 229 -268 506 -304 737 -23 145 -29 136 238 405 200 202 234 240
240 273 16 86 13 93 -326 620 -177 276 -332 513 -343 526 -29 33 -77 51 -133
51 -41 -1 -121 -35 -577 -250z"/>
<path d="M2502 4226 c-122 -44 -155 -195 -63 -287 43 -43 91 -59 181 -59 147
0 376 -57 522 -131 263 -132 475 -344 607 -607 74 -146 131 -375 131 -522 0
-90 16 -138 59 -181 74 -75 182 -71 255 8 37 39 49 99 42 195 -27 339 -112
592 -285 849 -284 423 -726 686 -1240 739 -127 12 -167 12 -209 -4z"/>
</g>
</svg>
