<?xml version="1.0" standalone="no"?>
<!DOCTYPE svg PUBLIC "-//W3C//DTD SVG 20010904//EN"
 "http://www.w3.org/TR/2001/REC-SVG-20010904/DTD/svg10.dtd">
<svg version="1.0" xmlns="http://www.w3.org/2000/svg"
 style="width: 100%;height: 100%;" viewBox="0 0 128.000000 128.000000"
 preserveAspectRatio="xMidYMid meet">

<g transform="translate(0.000000,128.000000) scale(0.100000,-0.100000)"
fill="white" stroke="none">
<path d="M118 1230 c-88 -56 -108 -86 -115 -170 -12 -129 59 -311 186 -480 83
-109 282 -308 391 -391 212 -160 446 -228 569 -165 36 19 131 158 131 192 0
11 -10 30 -22 41 -49 44 -284 193 -305 193 -15 0 -39 -21 -79 -70 -45 -57 -62
-70 -84 -70 -102 0 -480 378 -480 480 0 22 13 39 70 84 49 40 70 64 70 79 0
21 -149 256 -193 305 -30 32 -53 28 -139 -28z"/>
<path d="M712 1103 c2 -13 17 -20 53 -25 156 -22 279 -123 320 -262 8 -27 15
-65 15 -83 0 -34 22 -55 40 -37 15 15 -8 132 -35 189 -65 135 -213 235 -348
235 -41 0 -48 -3 -45 -17z"/>
<path d="M711 975 c3 -13 19 -22 54 -30 115 -26 185 -98 203 -208 5 -28 13
-43 25 -45 25 -5 23 70 -4 128 -42 93 -129 157 -226 167 -50 5 -55 4 -52 -12z"/>
<path d="M717 853 c-16 -16 -4 -33 27 -38 42 -8 82 -49 91 -92 5 -24 12 -33
26 -33 25 0 26 43 0 90 -27 52 -119 98 -144 73z"/>
</g>
</svg>
