<?xml version="1.0" standalone="no"?>
<!DOCTYPE svg PUBLIC "-//W3C//DTD SVG 20010904//EN"
 "http://www.w3.org/TR/2001/REC-SVG-20010904/DTD/svg10.dtd">
<svg version="1.0" xmlns="http://www.w3.org/2000/svg"
 width="512.000000pt" height="512.000000pt" viewBox="0 0 512.000000 512.000000"
 preserveAspectRatio="xMidYMid meet">

<g transform="translate(0.000000,512.000000) scale(0.100000,-0.100000)"
fill="#000000" stroke="none">
<path d="M2530 4900 c-14 -4 -534 -262 -1156 -573 -1067 -534 -1132 -568
-1148 -600 -15 -32 -16 -138 -16 -1167 0 -1029 1 -1135 16 -1167 16 -32 81
-67 1158 -605 856 -428 1150 -571 1176 -571 26 0 320 143 1176 571 1077 538
1142 573 1158 605 15 32 16 138 16 1167 0 1029 -1 1135 -16 1167 -16 32 -81
66 -1153 602 -625 312 -1147 570 -1161 573 -14 3 -36 2 -50 -2z m1025 -717
c547 -274 995 -500 995 -503 0 -3 -93 -52 -208 -109 l-207 -103 -1000 500
-1000 499 210 106 c116 58 211 106 212 106 2 1 451 -223 998 -496z m32 -989
l-307 -154 -995 497 c-547 274 -995 500 -995 503 0 3 136 73 303 156 l302 151
1000 -499 1000 -500 -308 -154z m-1552 229 c547 -274 995 -500 995 -503 0 -3
-106 -58 -235 -123 l-235 -117 -995 497 c-547 274 -995 500 -995 503 0 4 454
236 467 239 2 1 451 -223 998 -496z m-590 -425 l1005 -503 0 -997 c0 -549 -2
-998 -5 -998 -3 0 -457 226 -1010 502 l-1005 503 0 997 c0 549 2 998 5 998 3
0 457 -226 1010 -502z m3245 -496 l0 -997 -1005 -503 c-553 -276 -1007 -502
-1010 -502 -3 0 -5 449 -5 998 l0 997 235 118 c129 64 237 117 240 117 3 0 5
-234 5 -521 l0 -521 29 -29 c45 -45 124 -38 162 14 9 12 105 150 213 307 109
157 201 286 206 288 4 2 71 -42 148 -97 77 -56 152 -105 167 -111 36 -14 88 3
115 37 20 25 20 39 20 597 l0 571 233 117 c127 64 235 117 240 117 4 1 7 -448
7 -997z m-690 262 l0 -396 -67 48 c-140 100 -164 114 -200 114 -19 0 -43 -5
-53 -10 -10 -6 -74 -90 -141 -188 -68 -97 -136 -195 -151 -216 l-28 -39 0 381
0 382 318 159 c174 88 318 160 320 160 1 1 2 -177 2 -395z"/>
</g>
</svg>
