<?xml version="1.0" standalone="no"?>
<!DOCTYPE svg PUBLIC "-//W3C//DTD SVG 20010904//EN"
 "http://www.w3.org/TR/2001/REC-SVG-20010904/DTD/svg10.dtd">
<svg version="1.0" xmlns="http://www.w3.org/2000/svg"
 width="512.000000pt" height="512.000000pt" viewBox="0 0 512.000000 512.000000"
 preserveAspectRatio="xMidYMid meet">
<metadata>
Created by potrace 1.16, written by Peter Selinger 2001-2019
</metadata>
<g transform="translate(0.000000,512.000000) scale(0.100000,-0.100000)"
fill="#000000" stroke="none">
<path d="M1858 5104 c-341 -50 -678 -192 -963 -408 -104 -78 -304 -278 -384
-384 -124 -164 -256 -409 -315 -583 -311 -929 47 -1926 877 -2442 662 -410
1535 -405 2188 14 l76 49 125 -128 c69 -70 352 -364 630 -653 574 -597 548
-575 688 -567 85 5 123 21 176 75 52 52 77 114 77 193 0 98 -24 142 -151 273
-420 434 -1132 1177 -1132 1182 0 3 22 33 49 68 164 209 291 471 362 746 159
614 28 1255 -363 1774 -78 104 -279 305 -386 386 -288 218 -618 355 -974 406
-130 19 -448 18 -580 -1z m502 -545 c308 -38 607 -184 844 -409 476 -455 606
-1146 327 -1745 -128 -273 -356 -519 -626 -674 -387 -222 -857 -259 -1282
-102 -626 231 -1040 879 -983 1540 13 146 33 241 77 371 214 634 830 1060
1493 1032 36 -1 103 -7 150 -13z"/>
</g>
</svg>
