<?xml version="1.0" standalone="no"?>
<!DOCTYPE svg PUBLIC "-//W3C//DTD SVG 20010904//EN"
 "http://www.w3.org/TR/2001/REC-SVG-20010904/DTD/svg10.dtd">
<svg version="1.0" xmlns="http://www.w3.org/2000/svg"
 width="512.000000pt" height="512.000000pt" viewBox="0 0 512.000000 512.000000"
 preserveAspectRatio="xMidYMid meet">
<metadata>
Created by potrace 1.16, written by Peter Selinger 2001-2019
</metadata>
<g transform="translate(0.000000,512.000000) scale(0.100000,-0.100000)"
fill="#000000" stroke="none">
<path d="M2371 5100 c-150 -40 -306 -141 -387 -248 l-35 -48 -492 -58 c-271
-32 -501 -63 -512 -69 -31 -16 -44 -39 -45 -75 0 -32 54 -516 64 -573 5 -25 3
-27 -44 -31 -27 -3 -56 -11 -65 -18 -9 -7 -78 -117 -155 -245 l-139 -232 -86
-1660 c-47 -913 -85 -1692 -85 -1730 0 -60 3 -73 23 -91 l23 -22 2125 0 2126
0 21 23 c18 19 22 35 22 92 0 37 -38 815 -85 1728 l-86 1660 -139 232 c-77
128 -147 238 -156 246 -11 9 -49 15 -106 18 -86 3 -90 4 -84 25 3 11 18 74 33
138 29 128 26 152 -19 182 -13 8 -190 54 -393 101 -204 47 -380 90 -391 94
-14 6 -24 22 -28 45 -11 60 -92 208 -153 281 -76 91 -209 181 -324 220 -73 25
-102 29 -219 32 -111 2 -148 -1 -209 -17z m318 -176 c139 -34 279 -140 353
-265 21 -34 36 -64 34 -66 -2 -2 -51 8 -110 22 -113 28 -152 27 -180 -4 -8 -9
-34 -96 -56 -192 -23 -95 -43 -182 -46 -191 -4 -14 -72 -44 -80 -35 -1 1 -19
139 -39 306 -19 167 -40 311 -44 320 -21 39 -55 45 -163 33 -56 -7 -103 -10
-106 -7 -8 8 127 68 183 81 72 18 178 17 254 -2z m-329 -258 c0 -2 14 -117 30
-256 17 -139 27 -256 23 -260 -4 -4 -190 -51 -413 -104 -308 -74 -410 -102
-427 -118 -31 -29 -30 -70 7 -220 17 -67 30 -128 30 -135 0 -10 -45 -13 -203
-13 l-203 0 -56 478 c-31 262 -56 478 -55 478 1 1 283 36 627 77 344 41 628
75 633 76 4 0 7 -1 7 -3z m1105 -357 c242 -56 444 -105 449 -110 6 -5 -20
-134 -64 -324 l-74 -315 -246 0 -246 0 -82 343 c-72 301 -85 345 -107 365 -31
26 -65 28 -147 6 -33 -8 -61 -14 -63 -12 -1 2 7 42 18 89 l20 86 51 -13 c28
-7 249 -58 491 -115z m-495 -226 c0 -5 27 -120 60 -257 33 -136 60 -252 60
-257 0 -5 -276 -9 -643 -9 l-642 0 -28 117 c-15 64 -26 117 -24 119 2 1 1194
291 1210 293 4 0 7 -2 7 -6z m-1980 -282 c0 -9 14 -119 25 -203 l5 -38 -100 0
c-55 0 -100 3 -100 6 0 18 145 244 156 244 8 0 14 -4 14 -9z m3239 -110 c39
-66 71 -122 71 -125 0 -3 -74 -6 -165 -6 -91 0 -165 3 -165 8 0 4 12 60 27
125 l27 117 67 0 66 0 72 -119z m155 -373 c3 -35 40 -733 81 -1553 41 -820 76
-1511 78 -1537 l4 -48 -1987 0 -1987 0 4 48 c2 26 37 717 78 1537 41 820 78
1518 81 1553 l6 62 1818 0 1818 0 6 -62z"/>
<path d="M1850 3209 c-168 -32 -260 -248 -169 -395 24 -39 82 -92 114 -104 23
-9 23 -10 27 -242 4 -223 5 -236 32 -313 85 -248 285 -432 534 -492 88 -21
256 -21 344 0 249 60 449 244 534 492 27 77 28 90 32 312 l4 233 34 16 c42 20
101 85 121 133 24 55 21 159 -6 214 -26 53 -87 112 -140 134 -46 20 -156 20
-202 0 -199 -83 -215 -381 -26 -479 l39 -19 -4 -207 c-5 -237 -17 -291 -88
-400 -225 -349 -715 -349 -940 0 -71 109 -83 164 -88 400 l-4 207 39 19 c85
44 132 127 133 232 0 175 -145 292 -320 259z"/>
</g>
</svg>
