<?xml version="1.0" standalone="no"?>
<!DOCTYPE svg PUBLIC "-//W3C//DTD SVG 20010904//EN"
 "http://www.w3.org/TR/2001/REC-SVG-20010904/DTD/svg10.dtd">
<svg version="1.0" xmlns="http://www.w3.org/2000/svg"
 width="512.000000pt" height="512.000000pt" viewBox="0 0 512.000000 512.000000"
 preserveAspectRatio="xMidYMid meet">

<g transform="translate(0.000000,512.000000) scale(0.100000,-0.100000)"
fill="#000000" stroke="none">
<path d="M370 4540 l0 -210 -181 -442 c-169 -417 -180 -448 -186 -523 -14
-213 104 -445 280 -547 l37 -22 0 -1213 0 -1213 2240 0 2240 0 0 1213 0 1213
38 22 c175 102 294 335 278 548 -6 76 -16 105 -186 515 l-180 434 0 218 0 217
-2190 0 -2190 0 0 -210z m4160 -115 l0 -105 -1975 0 -1975 0 0 105 0 105 1975
0 1975 0 0 -105z m-3441 -582 c-21 -142 -42 -283 -46 -313 l-8 -55 -392 -3
-393 -2 18 43 c9 24 67 166 127 315 l110 272 311 0 311 0 -38 -257z m921 230
c0 -16 -7 -147 -15 -293 -8 -146 -15 -275 -15 -287 l0 -23 -365 0 c-201 0
-365 1 -365 3 0 1 20 139 45 306 25 168 45 309 45 313 0 4 151 8 335 8 l335 0
0 -27z m899 -270 c7 -164 15 -306 17 -315 5 -17 -17 -18 -366 -18 l-372 0 6
38 c3 20 11 162 17 315 l12 277 337 0 337 0 12 -297z m871 288 c0 -4 20 -143
45 -309 25 -165 45 -303 45 -306 0 -9 -730 -7 -730 2 0 4 -7 133 -15 287 -8
154 -15 292 -15 308 l0 27 335 0 c184 0 335 -4 335 -9z m962 -304 l126 -312
-386 -3 c-267 -1 -388 1 -392 9 -4 5 -14 63 -24 127 -9 64 -29 201 -44 305
l-28 187 310 0 311 0 127 -313z m-3748 -574 c-13 -71 -121 -193 -209 -236
-105 -52 -231 -54 -341 -6 -91 41 -186 152 -215 251 l-8 28 390 0 390 0 -7
-37z m973 -2 c-6 -48 -77 -145 -144 -196 -135 -103 -333 -105 -471 -5 -58 42
-141 149 -142 182 0 61 -23 58 387 58 l376 0 -6 -39z m973 2 c0 -64 -110 -190
-208 -238 -108 -53 -234 -53 -344 -1 -96 46 -208 175 -208 239 l0 37 380 0
380 0 0 -37z m970 -5 c-1 -36 -9 -53 -51 -106 -92 -116 -188 -164 -324 -164
-140 0 -235 50 -332 176 -40 51 -53 76 -53 102 l0 34 380 0 380 0 0 -42z m980
12 c-27 -95 -127 -210 -217 -250 -107 -47 -234 -45 -338 7 -88 43 -196 165
-209 236 l-7 37 390 0 390 0 -9 -30z m-3577 -434 c100 -49 199 -69 307 -63
152 10 275 65 389 172 l65 62 62 -61 c105 -106 274 -176 424 -176 80 0 198 29
272 66 65 33 156 104 187 145 l22 30 68 -64 c117 -110 238 -164 391 -174 169
-10 324 47 455 169 l74 69 22 -31 c31 -41 122 -111 187 -144 76 -38 193 -66
279 -66 l73 0 0 -1065 0 -1065 -110 0 -110 0 0 960 0 960 -637 -2 -638 -3 -3
-957 -2 -958 -1280 0 -1280 0 0 1065 0 1065 73 0 c86 0 203 28 279 66 65 33
156 103 187 144 l22 31 74 -69 c47 -44 101 -83 148 -106z m2847 -1346 l0 -850
-425 0 -425 0 0 369 0 368 68 5 c40 3 79 12 95 22 36 24 52 76 37 120 -16 48
-51 68 -132 74 l-68 5 0 368 0 369 425 0 425 0 0 -850z"/>
<path d="M750 1760 l0 -750 1065 0 1065 0 0 750 0 750 -1065 0 -1065 0 0 -750z
m1920 0 l0 -530 -855 0 -855 0 0 530 0 530 855 0 855 0 0 -530z"/>
<path d="M2415 2176 c-16 -8 -182 -166 -367 -353 -331 -332 -338 -340 -338
-379 0 -48 22 -82 64 -99 65 -27 70 -24 433 339 265 265 343 348 348 373 16
80 -67 151 -140 119z"/>
<path d="M2403 1744 c-48 -24 -259 -244 -265 -277 -16 -81 36 -135 122 -128
33 3 287 254 295 292 9 39 -18 95 -54 113 -37 20 -57 20 -98 0z"/>
</g>
</svg>
