<?xml version="1.0" standalone="no"?>
<!DOCTYPE svg PUBLIC "-//W3C//DTD SVG 20010904//EN"
 "http://www.w3.org/TR/2001/REC-SVG-20010904/DTD/svg10.dtd">
<svg version="1.0" xmlns="http://www.w3.org/2000/svg"
 width="512.000000pt" height="512.000000pt" viewBox="0 0 512.000000 512.000000"
 preserveAspectRatio="xMidYMid meet">

<g transform="translate(0.000000,512.000000) scale(0.100000,-0.100000)"
fill="#000000" stroke="none">
<path d="M2522 3850 c-1338 -516 -2445 -946 -2458 -955 -33 -22 -64 -73 -64
-108 0 -42 24 -92 56 -114 16 -11 292 -118 614 -238 322 -119 590 -222 596
-229 6 -6 111 -335 233 -731 123 -396 230 -735 239 -754 8 -18 29 -42 46 -52
35 -21 106 -25 139 -7 12 6 165 129 342 273 384 314 372 304 424 316 82 18 98
9 582 -342 848 -616 787 -574 840 -574 56 0 95 25 122 76 26 51 890 4224 883
4265 -12 61 -76 115 -138 114 -13 0 -1118 -423 -2456 -940z m1486 8 c7 -7 12
-19 12 -28 0 -9 -368 -358 -817 -776 -1093 -1015 -1137 -1057 -1166 -1106 -38
-66 -53 -132 -88 -393 -18 -137 -37 -250 -45 -262 -15 -24 -56 -31 -82 -14 -8
5 -73 213 -145 462 -138 482 -146 525 -113 601 9 21 31 51 49 68 40 38 2346
1460 2368 1460 8 0 20 -5 27 -12z"/>
</g>
</svg>
