<?xml version="1.0" standalone="no"?>
<!DOCTYPE svg PUBLIC "-//W3C//DTD SVG 20010904//EN"
 "http://www.w3.org/TR/2001/REC-SVG-20010904/DTD/svg10.dtd">
<svg version="1.0" xmlns="http://www.w3.org/2000/svg"
 width="512.000000pt" height="512.000000pt" viewBox="0 0 512.000000 512.000000"
 preserveAspectRatio="xMidYMid meet">

<g transform="translate(0.000000,512.000000) scale(0.100000,-0.100000)"
fill="#000000" stroke="none">
<path d="M2370 4184 c-589 -70 -1135 -342 -1715 -855 -203 -179 -537 -540
-623 -674 -36 -56 -36 -134 0 -190 46 -72 240 -297 378 -438 493 -508 1042
-864 1560 -1012 225 -64 339 -79 590 -79 251 0 365 15 590 79 607 174 1274
647 1806 1283 146 174 158 195 158 262 0 67 -12 88 -158 262 -529 631 -1194
1105 -1796 1280 -202 59 -336 78 -555 82 -110 3 -216 2 -235 0z m435 -349
c471 -71 984 -348 1477 -799 151 -137 448 -454 448 -477 0 -3 -34 -46 -77 -94
-582 -666 -1244 -1089 -1848 -1180 -128 -19 -362 -19 -490 0 -435 66 -899 303
-1360 694 -167 141 -565 551 -565 581 0 4 34 47 77 95 578 661 1240 1086 1839
1179 122 19 375 19 499 1z"/>
<path d="M2420 3564 c-433 -79 -741 -361 -846 -774 -27 -106 -27 -354 0 -460
97 -380 376 -659 756 -756 106 -27 354 -27 460 0 380 97 659 376 756 756 15
58 19 110 19 230 0 120 -4 172 -19 230 -95 375 -366 650 -741 752 -68 19 -323
33 -385 22z m300 -350 c187 -42 358 -179 445 -359 52 -107 68 -189 63 -325 -5
-129 -30 -216 -90 -318 -42 -72 -158 -188 -230 -230 -211 -124 -485 -124 -696
0 -72 42 -188 158 -230 230 -124 211 -124 485 0 696 42 72 158 188 230 230
151 89 328 116 508 76z"/>
</g>
</svg>
