<?xml version="1.0" standalone="no"?>
<!DOCTYPE svg PUBLIC "-//W3C//DTD SVG 20010904//EN"
 "http://www.w3.org/TR/2001/REC-SVG-20010904/DTD/svg10.dtd">
<svg version="1.0" xmlns="http://www.w3.org/2000/svg"
 width="512.000000pt" height="512.000000pt" viewBox="0 0 512.000000 512.000000"
 preserveAspectRatio="xMidYMid meet">
<metadata>
Created by potrace 1.16, written by Peter Selinger 2001-2019
</metadata>
<g transform="translate(0.000000,512.000000) scale(0.100000,-0.100000)"
fill="#000000" stroke="none">
<path d="M1305 4809 c-335 -25 -631 -159 -874 -394 -210 -204 -347 -450 -408
-735 -26 -121 -26 -449 0 -570 41 -191 128 -390 244 -553 42 -61 334 -359
1118 -1145 583 -585 1075 -1072 1093 -1084 42 -26 121 -27 159 -3 46 31 2103
2087 2170 2170 162 201 258 420 300 679 19 125 13 403 -12 516 -63 284 -205
535 -419 737 -409 388 -1019 492 -1544 264 -175 -75 -309 -170 -466 -329 l-99
-100 -121 114 c-67 63 -158 141 -203 173 -200 143 -456 239 -684 256 -41 3
-92 7 -114 9 -22 1 -85 -1 -140 -5z m288 -314 c107 -19 234 -58 312 -97 122
-62 203 -125 386 -304 274 -269 265 -269 534 -5 230 226 349 306 545 366 30 9
68 21 84 26 16 5 80 14 142 21 208 21 410 -17 609 -117 291 -146 496 -400 583
-724 23 -86 26 -114 26 -271 0 -157 -3 -185 -26 -272 -35 -127 -84 -240 -153
-346 -49 -76 -188 -218 -1068 -1095 l-1012 -1007 -1000 1002 c-1053 1055
-1056 1058 -1143 1233 -171 345 -144 771 70 1096 245 372 686 568 1111 494z"/>
</g>
</svg>
